<mxfile host="app.diagrams.net" modified="2024-03-12T12:30:24.954Z" agent="Mozilla/5.0 (X11; Linux x86_64) AppleWebKit/537.36 (KHTML, like Gecko) Chrome/122.0.0.0 Safari/537.36 Edg/122.0.0.0" version="24.0.5" etag="vQzn4xUx7hYk0ldoppT2" type="github">
  <diagram name="第 1 页" id="fUBIcQV6yoxDgUgwsWtf">
    <mxGraphModel>
      <root>
        <mxCell id="0" />
        <mxCell id="1" parent="0" />
      </root>
    </mxGraphModel>
  </diagram>
</mxfile>
